<svg id="eXlmrNx8ofu1" xmlns="http://www.w3.org/2000/svg" xmlns:xlink="http://www.w3.org/1999/xlink" viewBox="0 0 500 500" shape-rendering="geometricPrecision" text-rendering="geometricPrecision"><path d="M533.886972,262.774082h-19.812155c-16.162548,0-29.718233-13.946772-29.718233-30.500417c0-8.341994,3.519264-15.901927,9.775735-21.506704l12.773626-12.512991c12.643283-12.512991,12.643283-32.976946,0-45.489938l-29.066517-28.805949c-5.735098-5.735121-14.207401-9.124056-22.810047-9.124056s-16.944606,3.388935-22.810047,9.124056l-12.252254,12.252304c-5.865441,6.517183-13.686028,10.036462-22.158332,10.036462-16.68392,0-30.630635-13.555741-30.630635-29.588011v-19.94258C367.178113,79.119865,352.970712,64,335.244047,64h-39.624311c-17.726665,0-31.803723,14.989521-31.803723,32.716259v19.812236c0,16.03227-13.946715,29.588011-30.630635,29.588011-8.34196,0-16.032205-3.519279-21.636959-9.645431l-12.643283-12.512991c-5.735098-5.865465-14.207401-9.124056-22.810047-9.124056s-16.944606,3.388935-22.810047,9.124056l-29.327204,28.675605c-12.51294,12.512991-12.51294,32.976946,0,45.359594l12.252254,12.252304c6.517156,5.865465,10.166764,13.686084,10.166764,22.028079c0,16.683989-13.555685,30.500417-29.718233,30.500417h-19.812155C78.98946,262.774082,64,276.720854,64,294.447592v19.812236v19.812236c0,17.596394,14.98946,31.67351,32.846468,31.67351h19.812155c16.162548,0,29.718233,13.946772,29.718233,30.500417c0,8.341994-3.649608,16.162614-10.166764,22.028079l-12.252254,12.12196c-12.51294,12.512991-12.51294,32.976946,0,45.359594l29.066517,28.936293c5.735098,5.865465,14.207401,9.124056,22.810047,9.124056s16.944606-3.388935,22.810047-9.124056l12.643283-12.512991c5.474411-6.126152,13.294999-9.645431,21.636959-9.645431c16.68392,0,30.630635,13.555741,30.630635,29.588011v19.812236c0,17.596394,14.077058,32.716259,31.934066,32.716259h39.624311c17.726665,0,31.803723-14.989521,31.803723-32.716259v-19.812236c0-16.03227,13.946715-29.588011,30.630635-29.588011c8.34196,0,16.162548,3.649622,22.158332,10.036462l12.252254,12.252304c5.865441,5.735121,14.207401,9.124056,22.810047,9.124056s16.944606-3.388935,22.810047-9.124056l29.066517-28.936293c12.51294-12.512991,12.51294-32.976946,0-45.489938l-12.773626-12.512991c-6.25647-5.604777-9.775735-13.295053-9.775735-21.506704c0-16.683989,13.555685-30.500417,29.718233-30.500417h19.812155c17.726665,0,30.369949-13.946772,30.369949-31.67351v-19.94258-19.812236c.260686-17.726738-12.382597-31.67351-30.109262-31.67351ZM419.57605,314.259828v0c0,57.481554-46.532496,104.274928-104.274501,104.274928s-104.274501-46.793374-104.274501-104.274928v0v0c0-57.481554,46.532496-104.274928,104.274501-104.274928s104.274501,46.793374,104.274501,104.274928v0Z" transform="translate(-64-64.65)"/></svg>
