<svg id="esOkLDoXp7d1" xmlns="http://www.w3.org/2000/svg" xmlns:xlink="http://www.w3.org/1999/xlink" viewBox="0 0 400 400" shape-rendering="geometricPrecision" text-rendering="geometricPrecision"><g transform="matrix(1.95 0 0 1.95 2.345812 0.250008)"><line x1="-0.000001" y1="-98.068298" x2="0.000001" y2="98.068299" transform="matrix(0 1-1.0197 0 101.5 102.5)" fill="none" stroke="#fff" stroke-width="4"/><ellipse rx="100" ry="100" transform="translate(101.222 102.5)" paint-order="stroke fill markers" fill="none" stroke="#fff" stroke-width="4"/><line x1="-0.000001" y1="-98.068298" x2="0.000001" y2="98.068299" transform="matrix(1 0 0 1.0197 101.5 102.5)" fill="none" stroke="#fff" stroke-width="4"/><path d="M41.246442,22.610454c0,0,11.797493,14.931957,11.797493,81.096317s-11.797493,83.585828-11.797493,83.585828" transform="matrix(0 1.01196-1.01575 0 208.104 5.48423)" fill="none" stroke="#fff" stroke-width="4"/><path d="M41.246442,22.610454c0,0,11.797493,14.931957,11.797493,81.096317s-11.797493,83.585828-11.797493,83.585828" transform="matrix(0-1.01196 1.01575 0-5.38228 199.247)" fill="none" stroke="#fff" stroke-width="4"/><path d="M73.814336,8.073593c0,0,13.156094,34.659219,13.156093,95.633178s-13.156092,96.366822-13.156092,96.366822" transform="matrix(-1 0 0-1 144.855 206.574)" fill="none" stroke="#fff" stroke-width="4"/><path d="M73.814336,8.073593c0,0,13.156094,34.659219,13.156093,95.633178s-13.156092,96.366822-13.156092,96.366822" transform="translate(57.5888-1.57359)" fill="none" stroke="#fff" stroke-width="4"/></g></svg>
