<svg id="eEmM5HrGhR11" xmlns="http://www.w3.org/2000/svg" xmlns:xlink="http://www.w3.org/1999/xlink" viewBox="0 0 500 406" shape-rendering="geometricPrecision" text-rendering="geometricPrecision"><g transform="translate(-8.44-53)"><path d="M308.44,120.93v-62.54c0-2.976815-2.436986-5.39-5.443162-5.39h-289.113676c-1.443617,0-2.828106.567873-3.848897,1.578694s-1.594265,2.381789-1.594265,3.811306v88.24c.011126,2.969001,2.444856,5.37002,5.443162,5.37h136.331504q3.362844,0,6.715589,0c50.379564-.665259,100.313844-9.446757,147.843942-26c2.183404-.750078,3.652232-2.781546,3.665803-5.07Z" fill="#fdc500"/><path d="M508.44,85.91c-.00064-1.858319-.966175-3.585754-2.556058-4.573033s-3.580716-1.09568-5.270328-.286967c-12.316803,5.881628-24.136485,12.733672-35.344966,20.49l-62.065762,42.92c-61.964776,42.85-133.725158,66-207.525449,66.94-1.797544,0-3.605186,0-5.412829,0h-176.381483C10.87697,211.4,8.44,213.813185,8.44,216.79v88.24c0,2.976815,2.43697,5.39,5.443125,5.39h176.351187q3.362822,0,6.715544,0c93.916626-1.2,185.015754-30.52,263.48158-84.77l45.685895-31.59c1.456997-1.013621,2.323742-2.666756,2.322669-4.43Z" fill="#fdc500"/><rect width="500" height="99" rx="5.39" ry="5.39" transform="translate(8.44 359.98)" fill="#fdc500"/></g></svg>
